<?xml version="1.0" encoding="iso-8859-1"?>
<!-- Generator: Adobe Illustrator 19.0.0, SVG Export Plug-In . SVG Version: 6.00 Build 0)  -->
<svg version="1.1" id="Capa_1" xmlns="http://www.w3.org/2000/svg" xmlns:xlink="http://www.w3.org/1999/xlink" x="0px" y="0px"
	 viewBox="0 0 512 512" style="enable-background:new 0 0 512 512;" xml:space="preserve">
<circle style="fill:#71C2F5;" cx="200.014" cy="292" r="200.014"/>
<path style="fill:#56ACE1;" d="M232.016,476.015c-110.465,0-200.014-89.549-200.014-200.014c0-71.975,38.024-135.06,95.074-170.292
	C52.683,134.859,0,207.276,0,292.003c0,110.465,89.549,200.014,200.014,200.014c38.49,0,74.433-10.882,104.94-29.722
	C282.354,471.149,257.755,476.015,232.016,476.015z"/>
<g>
	<path style="fill:#15B259;" d="M126.997,105.759c-31.447,12.342-59.016,32.404-80.356,57.873l12.215,12.214
		C75.438,147.237,98.909,123.123,126.997,105.759z"/>
	<path style="fill:#15B259;" d="M141.963,454.632l-22.524,20.476c24.652,10.864,51.906,16.908,80.575,16.908
		c38.494,0,74.443-10.881,104.951-29.726c-22.602,8.857-47.206,13.725-72.949,13.725
		C199.621,476.015,169.03,468.305,141.963,454.632z"/>
</g>
<path style="fill:#3AC274;" d="M373.069,392.337l-106.384-25.33c0,0-16.668-50.003-16.668-58.337c0-8.334,41.67-58.337,41.67-58.337
	l101.406-10.675C370.083,154.584,292.365,91.989,200.014,91.989c-25.772,0-50.395,4.891-73.017,13.77
	c-28.088,17.364-51.559,41.478-68.142,70.087l24.484,24.484l66.672,8.334l58.337,91.673l8.334,50.003l-33.335,66.672l-41.383,37.622
	c27.067,13.672,57.658,21.382,90.053,21.382c25.742,0,50.346-4.867,72.949-13.725C333.022,444.958,356.478,420.891,373.069,392.337z
	"/>
<path style="fill:#15B259;" d="M32.002,276.002c0-4.637,0.171-9.233,0.482-13.791l-30.63,2.552C0.641,273.671,0,282.761,0,292.003
	c0,66.408,32.372,125.246,82.188,161.623l18.88-26.433C58.761,390.519,32.002,336.386,32.002,276.002z"/>
<path style="fill:#3AC274;" d="M108.34,333.672c-8.334,0-33.335-75.005-33.335-75.005l-42.521,3.543
	c-0.311,4.558-0.482,9.155-0.482,13.792c0,60.384,26.759,114.518,69.066,151.192l48.942-68.521
	C150.01,358.673,116.675,333.672,108.34,333.672z"/>
<path style="fill:#CCCFD9;" d="M509.519,326.636L387.966,212.172c-3.15-2.967-8.086-2.89-11.143,0.167l-20.001,20.001
	c-3.058,3.059-3.132,7.994-0.167,11.143l114.462,121.553c3.051,3.239,8.334,3.319,11.482,0.173l27.093-27.092
	C512.838,334.971,512.757,329.685,509.519,326.636z"/>
<polygon style="fill:#FFDE5E;" points="446.624,267.408 428.081,249.948 394.43,283.598 411.89,302.14 "/>
<path style="fill:#66708D;" d="M509.519,326.636l-62.896-59.227l-34.732,34.732l59.227,62.896c3.051,3.239,8.334,3.319,11.482,0.173
	l27.093-27.092C512.838,334.971,512.757,329.684,509.519,326.636z"/>
<path style="fill:#FFDE5E;" d="M292.475,19.984c-70.584,0-128.009,57.425-128.009,128.009s57.425,128.009,128.009,128.009
	s128.009-57.425,128.009-128.009S363.059,19.984,292.475,19.984z"/>
<path style="fill:#DDDFE6;" d="M292.475,40.44c-59.304,0-107.552,48.247-107.552,107.552s48.247,107.552,107.552,107.552
	s107.552-48.248,107.552-107.552S351.78,40.44,292.475,40.44z"/>
<path style="fill:#EEEFF2;" d="M292.475,51.986c-52.939,0-96.007,43.068-96.007,96.007s43.068,96.007,96.007,96.007
	s96.007-43.068,96.007-96.007S345.414,51.986,292.475,51.986z"/>
<path style="fill:#EF5830;" d="M292.475,85.989c-26.47,0-48.003,21.533-48.003,48.003c0,32.937,40.617,73.933,42.346,75.662
	c3.083,3.081,8.232,3.081,11.315,0c1.729-1.729,42.346-42.726,42.346-75.662C340.478,107.522,318.945,85.989,292.475,85.989z"/>
<path style="fill:#BF3A2B;" d="M264.018,131.992c0-21.398,14.076-39.565,33.452-45.743c-1.642-0.17-3.309-0.26-4.995-0.26
	c-26.47,0-48.003,21.533-48.003,48.003c0,32.937,40.617,73.933,42.346,75.662c3.083,3.082,8.232,3.082,11.315,0
	c0.344-0.344,2.234-2.25,5.035-5.335C293.247,193.671,264.018,159.934,264.018,131.992z"/>
<path style="fill:#FFA68F;" d="M292.475,110.99c-12.684,0-23.002,10.318-23.002,23.002s10.318,23.002,23.002,23.002
	c12.684,0,23.002-10.318,23.002-23.002S305.159,110.99,292.475,110.99z"/>
<g>
</g>
<g>
</g>
<g>
</g>
<g>
</g>
<g>
</g>
<g>
</g>
<g>
</g>
<g>
</g>
<g>
</g>
<g>
</g>
<g>
</g>
<g>
</g>
<g>
</g>
<g>
</g>
<g>
</g>
</svg>
